<svg width="25" height="25" viewBox="0 0 25 25" fill="none" xmlns="http://www.w3.org/2000/svg">
<g clip-path="url(#clip0_400_155)">
<path d="M23.4375 0H6.25C5.38633 0 4.6875 0.698828 4.6875 1.5625V3.90625H1.5625C0.698828 3.90625 0 4.60508 0 5.46875V17.1875C0 18.0512 0.698828 18.75 1.5625 18.75H4.29688C4.51289 18.75 4.6875 18.9246 4.6875 19.1406V23.4375C4.6875 24.0691 5.06758 24.6398 5.65195 24.8809C5.8457 24.9617 6.04844 25 6.25 25C6.65586 25 7.05547 24.8414 7.35469 24.5422L12.8844 19.0125C12.8844 19.0125 13.0859 18.75 13.5375 18.75C13.9891 18.75 19.5312 18.75 19.5312 18.75C20.3949 18.75 21.0938 18.0512 21.0938 17.1875V14.0625H23.4375C24.3012 14.0625 25 13.3637 25 12.5V1.5625C25 0.698828 24.3012 0 23.4375 0ZM20.3125 17.1875C20.3125 17.6191 19.9629 17.9688 19.5312 17.9688C19.5312 17.9688 13.7941 17.9688 13.5375 17.9688C12.777 17.9688 12.5 18.3594 12.5 18.3594C12.5 18.3594 7.8125 23.0469 7.03125 23.8281C6.19492 24.6645 5.46875 23.9809 5.46875 23.4375C5.46875 23.0469 5.46875 18.75 5.46875 18.75C5.46875 18.3184 5.11914 17.9688 4.6875 17.9688H1.5625C1.13086 17.9688 0.78125 17.6191 0.78125 17.1875V5.46875C0.78125 5.03711 1.13086 4.6875 1.5625 4.6875H19.5312C19.9629 4.6875 20.3125 5.03711 20.3125 5.46875V17.1875ZM24.2188 12.5C24.2188 12.9316 23.8691 13.2812 23.4375 13.2812H21.0938V5.46875C21.0938 4.60508 20.3949 3.90625 19.5312 3.90625H5.46875V1.5625C5.46875 1.13086 5.81836 0.78125 6.25 0.78125H23.4375C23.8691 0.78125 24.2188 1.13086 24.2188 1.5625V12.5Z" fill="white"/>
<path d="M5.07812 9.375H10.1562C10.3723 9.375 10.5469 9.20039 10.5469 8.98438C10.5469 8.76836 10.3723 8.59375 10.1562 8.59375H5.07812C4.86211 8.59375 4.6875 8.76836 4.6875 8.98438C4.6875 9.20039 4.86211 9.375 5.07812 9.375Z" fill="white"/>
<path d="M16.0156 10.9375H5.07812C4.86211 10.9375 4.6875 11.1121 4.6875 11.3281C4.6875 11.5441 4.86211 11.7188 5.07812 11.7188H16.0156C16.2316 11.7188 16.4062 11.5441 16.4062 11.3281C16.4062 11.1121 16.2316 10.9375 16.0156 10.9375Z" fill="white"/>
<path d="M13.2812 13.2812H5.07812C4.86211 13.2812 4.6875 13.4559 4.6875 13.6719C4.6875 13.8879 4.86211 14.0625 5.07812 14.0625H13.2812C13.4973 14.0625 13.6719 13.8879 13.6719 13.6719C13.6719 13.4559 13.4973 13.2812 13.2812 13.2812Z" fill="white"/>
</g>
<defs>
<clipPath id="clip0_400_155">
<rect width="25" height="25" fill="white"/>
</clipPath>
</defs>
</svg>
