<svg width="492" height="55" viewBox="0 0 492 55" fill="none" xmlns="http://www.w3.org/2000/svg">
<path fill-rule="evenodd" clip-rule="evenodd" d="M353.319 1.9388V3.87759H351.381H349.442V9.69398V15.5104H345.564H341.687V17.6915V19.8727H345.564H349.442V35.1407V50.4087H351.623H353.804V35.1407V19.8727H359.621H365.437V17.6915V15.5104H359.621H353.804V9.93633V4.36229H359.621H365.437V2.18115V0H359.378H353.319V1.9388ZM153.623 27.1431V50.4087H155.776C157.912 50.4087 157.928 50.3961 158.078 48.5911C158.215 46.9315 158.365 46.7604 159.803 46.6217C161.347 46.4729 161.379 46.5093 161.379 48.4394V50.4087H167.437H173.496V48.4699V46.5311H175.435H177.374V44.5923V42.6535H179.313H181.251V32.9595V23.2655H179.313H177.374V21.3268V19.388H175.435H173.496V17.4492V15.5104H167.437H161.379V17.4492C161.379 19.3419 161.338 19.388 159.682 19.388H157.986V11.6328V3.87759H155.805H153.623V27.1431ZM318.421 9.69398V15.5104H314.544H310.666V17.6915V19.8727H314.544H318.421V33.2019V46.5311H320.36H322.299V48.4699V50.4087H328.357H334.416V48.2275V46.0464H328.6H322.783V32.9595V19.8727H328.6H334.416V17.6915V15.5104H328.6H322.783V9.69398V3.87759H320.602H318.421V9.69398ZM413.422 27.1431V50.4087H415.603H417.784V27.1431V3.87759H415.603H413.422V27.1431ZM444.443 7.99753V12.1175H446.624H448.805V7.99753V3.87759H446.624H444.443V7.99753ZM91.582 27.1431V38.7759H93.5208H95.4596V44.5923V50.4087H97.6408H99.8219V44.5923V38.7759H101.761H103.7V33.2019V27.6278H105.396H107.092V33.2019V38.7759H109.031H110.97V44.5923V50.4087H113.151H115.332V44.5923V38.7759H117.271H119.21V27.1431V15.5104H117.029H114.848V27.1431V38.7759H113.151H111.455V32.9595V27.1431H109.516H107.577V21.3268V15.5104H105.396H103.215V21.3268V27.1431H101.276H99.3372V32.9901V38.8375L97.7619 38.6853L96.1867 38.5336L96.0568 27.022L95.9269 15.5104H93.7544H91.582V27.1431ZM130.358 17.4492V19.388H128.419H126.48V21.3268V23.2655H124.542H122.603V32.9595V42.6535H124.542H126.48V44.5923V46.5311H128.419H130.358V48.4699V50.4087H136.417H142.475V48.4699V46.5311H144.414H146.353V44.5923V42.6535H148.292H150.231V40.7147V38.7759H148.049C145.88 38.7759 145.868 38.7851 145.868 40.4724C145.868 42.1286 145.822 42.1688 143.93 42.1688H141.991V44.1076V46.0464H136.417H130.843V44.1076V42.1688H128.904H126.965V38.7759V35.383H138.598H150.231V29.3243V23.2655H148.292H146.353V21.3268V19.388H144.414H142.475V17.4492V15.5104H136.417H130.358V17.4492ZM215.665 34.8983V54.2863H217.831H219.997L220.133 48.5911L220.27 42.8959L221.845 42.7441C223.389 42.5953 223.42 42.6317 223.42 44.5618V46.5311H229.479H235.538V44.5923V42.6535H237.476H239.415V40.7147V38.7759H241.354H243.293V31.0207V23.2655H241.354H239.415V21.3268V19.388H237.476H235.538V17.4492V15.5104H229.479H223.42V17.4492C223.42 19.3419 223.38 19.388 221.724 19.388C220.067 19.388 220.027 19.3419 220.027 17.4492V15.5104H217.846H215.665V34.8983ZM254.441 17.4492V19.388H252.502H250.563V21.3268V23.2655H248.624H246.686V32.9595V42.6535H248.624H250.563V44.5923V46.5311H252.502H254.441V48.4699V50.4087H260.5H266.558V48.4699V46.5311H268.497H270.436V44.5923V42.6535H272.375H274.314V32.9595V23.2655H272.375H270.436V21.3268V19.388H268.497H266.558V17.4492V15.5104H260.5H254.441V17.4492ZM281.584 32.9595V50.4087H283.765H285.946V37.0795V23.7502H287.885H289.824V21.8115V19.8727H295.64H301.457V17.6915V15.5104H295.398H289.339V17.4492C289.339 19.3419 289.299 19.388 287.643 19.388C285.987 19.388 285.946 19.3419 285.946 17.4492V15.5104H283.765H281.584V32.9595ZM378.524 17.4492V19.388H376.585H374.646V21.3268V23.2655H372.707H370.769V32.9595V42.6535H372.707H374.646V44.5923V46.5311H376.585H378.524V48.4699V50.4087H384.583H390.641V48.4699V46.5311H392.58H394.519V44.5923V42.6535H396.458H398.396V32.9595V23.2655H396.458H394.519V21.3268V19.388H392.58H390.641V17.4492V15.5104H384.583H378.524V17.4492ZM444.443 32.9595V50.4087H446.624H448.805V32.9595V15.5104H446.624H444.443V32.9595ZM471.586 17.4492V19.388H469.647H467.708V21.3268V23.2655H465.77H463.831V32.9595V42.6535H465.77H467.708V44.5923V46.5311H469.647H471.586V48.4699V50.4087H477.645H483.703V48.4699V46.5311H485.642H487.581V44.5923V42.6535H489.52H491.459V32.9595V23.2655H489.52H487.581V21.3268V19.388H485.642H483.703V17.4492V15.5104H477.645H471.586V17.4492ZM141.991 21.8115V23.7502H143.93H145.868V27.3962V31.0416L136.538 30.9102L127.207 30.7784L127.065 27.2643L126.922 23.7502H128.883H130.843V21.8115V19.8727H136.417H141.991V21.8115ZM173.011 21.8115V23.7502H174.95H176.889V32.9595V42.1688H174.95H173.011V44.1076V46.0464H167.437H161.863V44.1076V42.1688H159.925H157.986V32.9595V23.7502H159.925H161.863V21.8115V19.8727H167.437H173.011V21.8115ZM235.053 21.8115V23.7502H236.992H238.93V31.2631V38.7759H236.992C235.099 38.7759 235.053 38.8161 235.053 40.4724V42.1688H229.479H223.905V40.5014C223.905 38.9252 223.806 38.8263 222.087 38.6838L220.27 38.5336L220.136 31.1419L220.002 23.7502H221.953H223.905V21.8115V19.8727H229.479H235.053V21.8115ZM266.074 21.8115V23.7502H268.012H269.951V32.9595V42.1688H268.012H266.074V44.1076V46.0464H260.5H254.926V44.1076V42.1688H252.987H251.048V32.9595V23.7502H252.987H254.926V21.8115V19.8727H260.5H266.074V21.8115ZM390.157 21.8115V23.7502H392.095H394.034V32.9595V42.1688H392.095H390.157V44.1076V46.0464H384.583H379.008V44.1076V42.1688H377.07H375.131V32.9595V23.7502H377.07H379.008V21.8115V19.8727H384.583H390.157V21.8115ZM483.219 21.8115V23.7502H485.158H487.096V32.9595V42.1688H485.158H483.219V44.1076V46.0464H477.645H472.071V44.1076V42.1688H470.132H468.193V32.9595V23.7502H470.132H472.071V21.8115V19.8727H477.645H483.219V21.8115ZM186.583 33.2106V35.4005L198.337 35.2706L210.091 35.1407L210.24 33.0807L210.389 31.0207H198.486H186.583V33.2106Z" fill="#142850"/>
<path fill-rule="evenodd" clip-rule="evenodd" d="M31.3906 0.79079C26.0894 2.98745 22.4968 7.5155 21.7824 12.9024L21.4479 15.4219L17.4763 15.4074C9.85296 15.3788 4.73163 18.4367 1.15989 25.1493C0.158498 27.0319 -0.000483596 27.9945 1.10255e-06 32.1775C1.10255e-06 36.5005 0.141048 37.291 1.3019 39.4916C3.87275 44.3657 8.90925 47.4697 14.8226 47.825C25.3362 48.4556 33.2906 43.1704 42.0186 29.754C48.5067 19.7808 53.1245 16.2285 59.6175 16.2173C63.529 16.2105 65.7974 17.1736 68.6765 20.0644C74.0746 25.4838 73.9253 33.9282 68.3319 39.5216C62.3715 45.4815 53.7342 44.7544 47.0328 37.7287C45.4943 36.1156 44.206 34.8608 44.1696 34.9407C44.1333 35.0202 43.6064 35.7953 42.9991 36.6629C42.146 37.8804 42.0059 38.4495 42.3855 39.1581C43.3156 40.8967 47.4399 44.0894 51.0761 45.8867C54.4268 47.5429 55.0536 47.6873 58.8652 47.6825C62.5077 47.6777 63.4054 47.4906 66.27 46.1382C70.1796 44.293 73.3461 41.1919 75.2214 37.372C76.4501 34.8695 76.5819 34.1075 76.5819 29.5116C76.5819 25.0873 76.4264 24.1058 75.391 21.9988C71.6773 14.4423 62.0856 10.0325 54.2577 12.283C48.2886 13.9988 44.57 17.4242 39.0503 26.2913C31.5864 38.2808 25.7104 43.0037 17.6794 43.4685C14.6457 43.6445 13.5788 43.4937 11.4942 42.597C8.69647 41.3935 5.98216 38.6981 4.85765 36.0066C2.62319 30.6589 5.47177 23.6918 11.1476 20.6232C12.8431 19.7066 13.8541 19.5753 19.2062 19.5753H25.326L25.61 16.1902C26.0002 11.5303 27.8469 7.97596 30.965 5.88255C32.9847 4.52636 33.7244 4.30873 36.2855 4.31794C40.3366 4.33248 42.9855 5.59028 44.7183 8.32204L46.0682 10.4513L47.8834 9.24636C49.6758 8.0574 49.6889 8.02589 48.9003 6.7807C47.5475 4.64366 45.6567 2.82313 43.4247 1.50717C40.6066 -0.15389 34.5421 -0.514989 31.3906 0.79079Z" fill="#FF6464"/>
</svg>
