<svg width="213" height="213" viewBox="0 0 213 213" fill="none" xmlns="http://www.w3.org/2000/svg">
<path fill-rule="evenodd" clip-rule="evenodd" d="M71.6875 88.25C71.6875 68.6439 87.5814 52.75 107.188 52.75C126.793 52.75 142.688 68.6439 142.688 88.25V97.125H151.562C168.718 97.125 182.625 111.032 182.625 128.188C182.625 145.343 168.718 159.25 151.562 159.25H142.688C137.786 159.25 133.812 163.223 133.812 168.125C133.812 173.027 137.786 177 142.688 177H151.562C178.521 177 200.375 155.146 200.375 128.188C200.375 104.041 182.842 83.9897 159.813 80.0694C155.878 54.5439 133.815 35 107.188 35C80.5602 35 58.4976 54.5439 54.5619 80.0694C31.5327 83.9897 14 104.041 14 128.188C14 155.146 35.8541 177 62.8125 177H71.6875C76.589 177 80.5625 173.027 80.5625 168.125C80.5625 163.223 76.589 159.25 71.6875 159.25H62.8125C45.6571 159.25 31.75 145.343 31.75 128.188C31.75 111.032 45.6571 97.125 62.8125 97.125H71.6875V88.25ZM140.088 117.475L113.463 90.8495C109.997 87.3835 104.378 87.3835 100.912 90.8495L74.2869 117.475C70.821 120.94 70.821 126.56 74.2869 130.026C77.7528 133.491 83.3722 133.491 86.8381 130.026L98.3125 118.551V168.125C98.3125 173.027 102.286 177 107.188 177C112.089 177 116.062 173.027 116.062 168.125V118.551L127.537 130.026C131.003 133.491 136.622 133.491 140.088 130.026C143.554 126.56 143.554 120.94 140.088 117.475Z" fill="black"/>
</svg>
