<svg width="213" height="213" viewBox="0 0 213 213" fill="none" xmlns="http://www.w3.org/2000/svg">
<path d="M66.5625 193.031C92.2955 193.031 113.156 172.171 113.156 146.438C113.156 120.704 92.2955 99.8438 66.5625 99.8438C40.8295 99.8438 19.9688 120.704 19.9688 146.438C19.9688 172.171 40.8295 193.031 66.5625 193.031Z" stroke="black" stroke-width="14" stroke-miterlimit="10" stroke-linecap="round" stroke-linejoin="round"/>
<path d="M66.5625 193.031V126.469" stroke="black" stroke-width="14" stroke-miterlimit="10" stroke-linecap="round" stroke-linejoin="round"/>
<path d="M93.1875 153.094L66.5625 126.469L39.9375 153.094" stroke="black" stroke-width="14" stroke-miterlimit="10" stroke-linecap="round" stroke-linejoin="round"/>
<path d="M99.8438 179.719H179.719C187.041 179.719 193.031 173.728 193.031 166.406V73.2188C193.031 65.8969 187.041 59.9062 179.719 59.9062H116.484" stroke="black" stroke-width="14" stroke-miterlimit="10" stroke-linecap="round" stroke-linejoin="round"/>
<path d="M189.703 175.059L116.484 59.9062L99.8438 33.2812H83.2031H33.2812C25.9594 33.2812 19.9688 39.2719 19.9688 46.5938V146.438" stroke="black" stroke-width="14" stroke-miterlimit="10" stroke-linecap="round" stroke-linejoin="round"/>
</svg>
